<svg width="321" height="109" viewBox="0 0 321 109" fill="none" xmlns="http://www.w3.org/2000/svg">
<path d="M81.4842 86.7812C79.3748 86.7812 77.3826 86.2604 75.5076 85.2188C73.6326 84.1771 72.0962 82.4974 70.8982 80.1797C69.7264 77.862 69.1404 74.7891 69.1404 70.9609C69.1404 68.0964 69.4399 65.2578 70.0389 62.4453C70.6639 59.6328 71.5493 56.9766 72.6951 54.4766C73.867 51.9505 75.2732 49.724 76.9139 47.7969C78.5805 45.8438 80.4555 44.3073 82.5389 43.1875C84.6482 42.0677 86.9269 41.5078 89.3748 41.5078C91.2238 41.5078 92.8383 41.7812 94.2186 42.3281C95.5988 42.849 96.7837 43.5911 97.7732 44.5547C98.7628 45.5182 99.5701 46.638 100.195 47.9141H100.508L102.734 42.3281H111.797L102.5 86H93.7107L94.2576 80.3359H93.9451C92.9034 81.612 91.7706 82.7318 90.5467 83.6953C89.3227 84.6589 87.9686 85.4141 86.4842 85.9609C84.9998 86.5078 83.3331 86.7812 81.4842 86.7812ZM86.0936 77.2891C87.7081 77.2891 89.2055 76.6641 90.5857 75.4141C91.9659 74.138 93.1508 72.4844 94.1404 70.4531C95.13 68.4219 95.8331 66.2734 96.2498 64.0078C96.4581 62.9661 96.6014 61.9245 96.6795 60.8828C96.7837 59.8151 96.8357 58.6693 96.8357 57.4453C96.8357 55.5964 96.3409 54.0729 95.3514 52.875C94.3878 51.651 93.0597 51.0391 91.367 51.0391C90.2212 51.0391 89.1274 51.4167 88.0857 52.1719C87.0701 52.901 86.1326 53.9167 85.2732 55.2188C84.4139 56.4948 83.6587 57.9661 83.0076 59.6328C82.3826 61.2734 81.9008 63.0182 81.5623 64.8672C81.2238 66.7161 81.0545 68.5651 81.0545 70.4141C81.0545 72.6797 81.4972 74.3984 82.3826 75.5703C83.268 76.7161 84.505 77.2891 86.0936 77.2891ZM124.169 86.7812C121.148 86.7812 118.4 86.2474 115.926 85.1797C113.478 84.0859 111.525 82.3672 110.067 80.0234C108.635 77.6536 107.919 74.5547 107.919 70.7266C107.919 67.5755 108.244 64.5547 108.895 61.6641C109.546 58.7734 110.51 56.1042 111.786 53.6562C113.062 51.2083 114.637 49.0859 116.512 47.2891C118.387 45.4661 120.536 44.0469 122.958 43.0312C125.379 42.0156 128.075 41.5078 131.044 41.5078C133.648 41.5078 135.978 41.7552 138.036 42.25C140.119 42.7448 142.059 43.4349 143.856 44.3203L140.262 53.2656C138.856 52.6667 137.476 52.1458 136.122 51.7031C134.768 51.2604 133.231 51.0391 131.512 51.0391C129.663 51.0391 128.01 51.5729 126.551 52.6406C125.119 53.7083 123.895 55.1406 122.879 56.9375C121.89 58.7344 121.135 60.7526 120.614 62.9922C120.093 65.2057 119.833 67.4583 119.833 69.75C119.833 71.3906 120.093 72.7708 120.614 73.8906C121.161 75.0104 121.929 75.8568 122.919 76.4297C123.934 77.0026 125.145 77.2891 126.551 77.2891C128.531 77.2891 130.366 76.9896 132.059 76.3906C133.752 75.7656 135.497 74.9974 137.294 74.0859V83.6953C135.471 84.6589 133.504 85.4141 131.395 85.9609C129.286 86.5078 126.877 86.7812 124.169 86.7812ZM155.056 86.7812C151.645 86.7812 148.637 86.1693 146.033 84.9453C143.454 83.6953 141.436 81.8203 139.978 79.3203C138.52 76.8203 137.79 73.6823 137.79 69.9062C137.79 66.2604 138.311 62.7448 139.353 59.3594C140.395 55.9479 141.944 52.901 144.001 50.2188C146.085 47.5365 148.637 45.4141 151.658 43.8516C154.704 42.2891 158.22 41.5078 162.204 41.5078C167.1 41.5078 170.759 42.6276 173.181 44.8672C175.629 47.0807 176.853 49.9323 176.853 53.4219C176.853 55.7135 176.332 57.7969 175.29 59.6719C174.275 61.5469 172.725 63.1615 170.642 64.5156C168.559 65.8438 165.941 66.8724 162.79 67.6016C159.639 68.3047 155.941 68.6562 151.697 68.6562H149.704C149.678 68.9688 149.652 69.2422 149.626 69.4766C149.626 69.7109 149.626 69.9714 149.626 70.2578C149.626 72.6016 150.303 74.4635 151.658 75.8438C153.012 77.224 154.926 77.9141 157.4 77.9141C159.691 77.9141 161.775 77.6536 163.65 77.1328C165.525 76.612 167.738 75.7526 170.29 74.5547V83.4219C167.999 84.5417 165.668 85.388 163.298 85.9609C160.928 86.5078 158.181 86.7812 155.056 86.7812ZM150.994 60.7266H152.751C155.772 60.7266 158.22 60.401 160.095 59.75C161.996 59.099 163.376 58.2396 164.236 57.1719C165.121 56.1042 165.564 54.9453 165.564 53.6953C165.564 52.4453 165.199 51.5208 164.47 50.9219C163.767 50.2969 162.764 49.9844 161.462 49.9844C160.004 49.9844 158.559 50.4401 157.126 51.3516C155.694 52.263 154.431 53.526 153.337 55.1406C152.244 56.7552 151.462 58.6172 150.994 60.7266ZM171.529 86L180.787 42.3281H189.772L188.951 50.4141H189.303C190.423 48.6693 191.66 47.1328 193.014 45.8047C194.368 44.4766 195.865 43.4349 197.506 42.6797C199.173 41.8984 201.022 41.5078 203.053 41.5078C205.553 41.5078 207.636 42.0286 209.303 43.0703C210.996 44.0859 212.259 45.5312 213.092 47.4062C213.925 49.2812 214.342 51.5078 214.342 54.0859C214.342 55.0495 214.264 56.1302 214.108 57.3281C213.951 58.526 213.73 59.7891 213.444 61.1172L208.248 86H196.49L201.842 60.4922C202.05 59.6068 202.207 58.7734 202.311 57.9922C202.415 57.2109 202.467 56.4948 202.467 55.8438C202.467 54.2031 202.115 52.9922 201.412 52.2109C200.709 51.4297 199.654 51.0391 198.248 51.0391C196.477 51.0391 194.876 51.8073 193.444 53.3438C192.011 54.8542 190.761 56.8854 189.694 59.4375C188.652 61.9896 187.793 64.8151 187.115 67.9141L183.287 86H171.529ZM225.659 86.7812C222.196 86.7812 219.435 86.0521 217.378 84.5938C215.321 83.1354 214.292 80.5052 214.292 76.7031C214.292 76.0781 214.331 75.401 214.409 74.6719C214.487 73.9167 214.604 73.1354 214.761 72.3281L219.253 51.2734H213.315L214.448 45.5312L222.104 42.25L227.261 33.0312H234.839L232.925 42.3281H243.979L242.026 51.2734H231.011L226.519 72.3281C226.44 72.7188 226.375 73.1094 226.323 73.5C226.297 73.8646 226.284 74.1641 226.284 74.3984C226.284 75.4401 226.597 76.1823 227.222 76.625C227.847 77.0677 228.68 77.2891 229.722 77.2891C230.789 77.2891 231.805 77.1719 232.769 76.9375C233.758 76.6771 234.852 76.3385 236.05 75.9219V84.7109C234.8 85.3099 233.289 85.8047 231.519 86.1953C229.774 86.5859 227.821 86.7812 225.659 86.7812ZM235.101 86L244.359 42.3281H253.344L252.523 50.4141H252.953C254.125 48.5651 255.401 46.9766 256.781 45.6484C258.161 44.3203 259.659 43.3047 261.273 42.6016C262.888 41.8724 264.646 41.5078 266.547 41.5078C267.172 41.5078 267.836 41.5469 268.539 41.625C269.268 41.7031 269.854 41.8073 270.297 41.9375L267.719 53.2656C267.302 53.1094 266.742 52.9661 266.039 52.8359C265.362 52.7057 264.62 52.6406 263.812 52.6406C262.354 52.6406 260.961 52.9401 259.633 53.5391C258.304 54.112 257.081 54.9714 255.961 56.1172C254.841 57.263 253.851 58.7083 252.992 60.4531C252.159 62.1719 251.495 64.1771 251 66.4688L246.859 86H235.101ZM274.387 86.7812C272.278 86.7812 270.286 86.2604 268.411 85.2188C266.536 84.1771 264.999 82.4974 263.801 80.1797C262.629 77.862 262.044 74.7891 262.044 70.9609C262.044 68.0964 262.343 65.2578 262.942 62.4453C263.567 59.6328 264.452 56.9766 265.598 54.4766C266.77 51.9505 268.176 49.724 269.817 47.7969C271.484 45.8438 273.359 44.3073 275.442 43.1875C277.551 42.0677 279.83 41.5078 282.278 41.5078C284.127 41.5078 285.741 41.7812 287.122 42.3281C288.502 42.849 289.687 43.5911 290.676 44.5547C291.666 45.5182 292.473 46.638 293.098 47.9141H293.411L295.637 42.3281H304.7L295.403 86H286.614L287.161 80.3359H286.848C285.807 81.612 284.674 82.7318 283.45 83.6953C282.226 84.6589 280.872 85.4141 279.387 85.9609C277.903 86.5078 276.236 86.7812 274.387 86.7812ZM278.997 77.2891C280.611 77.2891 282.109 76.6641 283.489 75.4141C284.869 74.138 286.054 72.4844 287.044 70.4531C288.033 68.4219 288.736 66.2734 289.153 64.0078C289.361 62.9661 289.504 61.9245 289.583 60.8828C289.687 59.8151 289.739 58.6693 289.739 57.4453C289.739 55.5964 289.244 54.0729 288.254 52.875C287.291 51.651 285.963 51.0391 284.27 51.0391C283.124 51.0391 282.031 51.4167 280.989 52.1719C279.973 52.901 279.036 53.9167 278.176 55.2188C277.317 56.4948 276.562 57.9661 275.911 59.6328C275.286 61.2734 274.804 63.0182 274.465 64.8672C274.127 66.7161 273.958 68.5651 273.958 70.4141C273.958 72.6797 274.4 74.3984 275.286 75.5703C276.171 76.7161 277.408 77.2891 278.997 77.2891ZM304.337 87.0547C302.124 87.0547 300.561 86.4818 299.65 85.3359C298.738 84.1901 298.283 82.9141 298.283 81.5078C298.283 79.5807 298.882 77.8099 300.079 76.1953C301.277 74.5807 303.335 73.7734 306.251 73.7734C308.022 73.7734 309.441 74.2682 310.509 75.2578C311.577 76.2474 312.111 77.6406 312.111 79.4375C312.111 81.651 311.408 83.474 310.001 84.9062C308.595 86.3385 306.707 87.0547 304.337 87.0547Z" fill="url(#paint0_linear_1_8)"/>
<circle cx="20.4313" cy="53.8065" r="13.0019" transform="rotate(21.0665 20.4313 53.8065)" fill="#4082EB"/>
<rect x="46.6216" y="32" width="28.891" height="52.8494" rx="14.4455" transform="rotate(21.0665 46.6216 32)" fill="#4082EB"/>
<defs>
<linearGradient id="paint0_linear_1_8" x1="78" y1="47" x2="314" y2="86" gradientUnits="userSpaceOnUse">
<stop stop-color="white"/>
<stop offset="1" stop-color="#DCDCDC"/>
</linearGradient>
</defs>
</svg>
